<svg height="100" viewBox="0 0 100 100" width="100" xmlns="http://www.w3.org/2000/svg"><circle cx="50" cy="50" fill="#f2c165" r="50"/><g fill="#231f1e" transform="translate(12.715 9.413)"><path d="m53.7 55.4a3.78 3.78 0 0 0 -3.773 3.156h-11.112a3.89 3.89 0 0 0 -3.773-3.156 3.836 3.836 0 0 0 -3.842 3.842 3.766 3.766 0 0 0 .96 2.538 3.766 3.766 0 0 0 -.96 2.538 3.836 3.836 0 0 0 3.842 3.842 3.9 3.9 0 0 0 3.842-3.224h11.045a3.969 3.969 0 0 0 3.842 3.224 3.836 3.836 0 0 0 3.842-3.842 3.766 3.766 0 0 0 -.96-2.538 3.766 3.766 0 0 0 .96-2.538 3.9 3.9 0 0 0 -3.913-3.842zm1.509 7a2.606 2.606 0 0 1 1.029 1.99 2.47 2.47 0 0 1 -4.94 0 .648.648 0 0 0 -.686-.686h-12.346a.687.687 0 0 0 -.686.686 2.47 2.47 0 1 1 -4.94 0 2.324 2.324 0 0 1 1.03-1.99.686.686 0 0 0 0-1.1 2.606 2.606 0 0 1 -1.029-1.99 2.47 2.47 0 0 1 4.94 0 .648.648 0 0 0 .686.686h12.348a.648.648 0 0 0 .686-.686 2.47 2.47 0 0 1 4.94 0 2.324 2.324 0 0 1 -1.029 1.99.686.686 0 0 0 0 1.1z" transform="translate(-6.813 -11.177)"/><path d="m64.384 19.8h-54.2a.648.648 0 0 0 -.686.686v40.2a.648.648 0 0 0 .686.686h54.2a.648.648 0 0 0 .686-.686v-40.2a.648.648 0 0 0 -.686-.686zm-.684 40.2h-52.828v-38.828h52.828z"/><path d="m39.686 35.638a.648.648 0 0 0 .686-.686 6.38 6.38 0 1 1 12.761 0 .686.686 0 0 0 1.372 0 7.752 7.752 0 1 0 -15.5 0 .687.687 0 0 0 .681.686z" transform="translate(-9.262 -2.323)"/><path d="m26.586 51.572h32.244a.686.686 0 1 0 0-1.372h-32.244a.686.686 0 1 0 0 1.372z" transform="translate(-5.149 -9.544)"/><path d="m26.586 46.172h32.244a.686.686 0 1 0 0-1.372h-32.244a.686.686 0 1 0 0 1.372z" transform="translate(-5.149 -7.849)"/><path d="m46.6 35.007a2.607 2.607 0 1 0 2.607-2.607 2.606 2.606 0 0 0 -2.607 2.607zm3.773 0a1.235 1.235 0 1 1 -1.235-1.235 1.23 1.23 0 0 1 1.235 1.235z" transform="translate(-11.648 -3.956)"/></g></svg>