<svg height="50" viewBox="0 0 50 50" width="50" xmlns="http://www.w3.org/2000/svg"><circle cx="25" cy="25" fill="#f2c165" r="25"/><path d="m77.152 14.84h3.054v12.574a.449.449 0 0 0 .449.449h5.179a.449.449 0 0 0 .449-.449v-12.514h3.517a.449.449 0 0 0 .446-.4l.533-4.629a.449.449 0 0 0 -.446-.5h-4.049v-2.901c0-.875.471-1.318 1.4-1.318h2.644a.449.449 0 0 0 .449-.449v-4.25a.449.449 0 0 0 -.448-.453h-3.645c-.026 0-.083 0-.167 0a6.983 6.983 0 0 0 -4.566 1.721 4.789 4.789 0 0 0 -1.592 4.257v3.393h-3.207a.449.449 0 0 0 -.449.449v4.57a.449.449 0 0 0 .449.45z" fill="#231f1e" transform="translate(-58.703 11)"/></svg>