<svg xmlns="http://www.w3.org/2000/svg" width="96.067" height="98.957" viewBox="0 0 96.067 98.957">
  <g id="Hand_Print" data-name="Hand Print" transform="translate(-1.959 -0.568)">
    <path id="Path_596" data-name="Path 596" d="M17.4,67.3C16,69.8,11.9,68.6,9,65.2s-4.5-6.3-6.1-7.1c-1.6-.9-1.4-5.5,2.5-5.7a16.558,16.558,0,0,1,10.4,3.9C17.2,57.9,19.9,62.9,17.4,67.3Z" fill="#231f1e"/>
    <path id="Path_597" data-name="Path 597" d="M27.4,74.7a21.515,21.515,0,0,0-1.1,8c.4,3,4.1,7.5,5,8.8s5.9,5.4,10.5,5.4,10.2-2.1,13.9,0c3.8,2.1,8,4.1,12.1,1.1s5.7-7.1,7.9-14.8c2.1-7.7,5.5-13.6,4.8-18-.7-4.5-3.6-7-5.7-9.3s-4.1-4.3-7.7-3.4S60.8,47.9,56.6,47c-4.3-.9-8.4,1.1-11.1-2.7s.5-5.7-1.6-8.6a24.811,24.811,0,0,1-4.1-9.3c-.7-3.2-1.8-6.1-2.1-8.8-.4-2.7.2-7.9-2.9-9.1-3-1.3-5.7-.5-7,1.4-1.3,2-.7,8.4,0,10.5s.9,7.1,2,9.5c1.1,2.3,1.6,6.4,3.4,10s4.5,4.6,3.9,6.8c-.5,2.1-1.6,5.7-.2,9.6s.9,7.5-.7,9.1C34.7,67,28.6,70.4,27.4,74.7Z" fill="#231f1e"/>
    <path id="Path_598" data-name="Path 598" d="M50.3,34.3c-.1-4,2.1-7.3,2.5-9.3s-1.1-7-1.3-10.9S52,1,55.6.6s4.6,3,4.6,5.1-.4,10.4,0,12.5a7.986,7.986,0,0,1-1.6,6.3c-1.4,1.6-.7,3.2.2,4.6s2,5.5.7,8.2-4.3,2.9-6.1,2.5C51.7,39.5,50.3,35.9,50.3,34.3Z" fill="#231f1e"/>
    <path id="Path_599" data-name="Path 599" d="M67.8,42a5.929,5.929,0,0,1,0-5.2c.9-1.8,6.6-7.1,7.1-10.7s-.5-11.8,2.5-13.9,7.1-3.4,7.5-.9.4,7.7-2.3,11.4c-2.7,3.8-2,5.9-2.7,8.8S77.9,41,76,42.8s-4,3.2-6.5,2.5C67.1,44.5,68.4,43.4,67.8,42Z" fill="#231f1e"/>
    <path id="Path_600" data-name="Path 600" d="M94.9,32.9c-2.3-.3-3.2,1.8-4.3,3.2a15.852,15.852,0,0,0-2.5,4.8c-.2,1.1-1.8,2.5-2.3,4.5s-.5,5.9,1.3,5.2a8.31,8.31,0,0,0,4.1-3.4c.7-1.3.7-2.5,1.8-2.9s4.5-3.8,4.8-5.4S98.7,33.4,94.9,32.9Z" fill="#231f1e"/>
    <path id="Path_601" data-name="Path 601" d="M82.4,53.6c-.5,1-2.5,4.1,0,2.8s2.4-2.2,3.1-4.1S83.4,51.8,82.4,53.6Z" fill="#231f1e"/>
  </g>
</svg>
