<svg xmlns="http://www.w3.org/2000/svg" xmlns:xlink="http://www.w3.org/1999/xlink" width="118" height="118" viewBox="0 0 118 118"><defs><filter id="a" x="0" y="0" width="118" height="118" filterUnits="userSpaceOnUse"><feOffset dy="3" input="SourceAlpha"/><feGaussianBlur stdDeviation="3" result="b"/><feFlood flood-opacity="0.161"/><feComposite operator="in" in2="b"/><feComposite in="SourceGraphic"/></filter></defs><g transform="translate(9 6)"><g transform="matrix(1, 0, 0, 1, -9, -6)" filter="url(#a)"><circle cx="50" cy="50" r="50" transform="translate(9 6)" fill="#231f1e"/></g><g transform="translate(18.949 18.785)"><path d="M41.213,50.1v3.532H53.6V50.1a6.2,6.2,0,0,0-3.8-5.706,4.891,4.891,0,0,0,.815-8.042V15.7h2.771V8.8H8.717v6.847h2.771V36.3a4.891,4.891,0,0,0,.815,8.042,6.2,6.2,0,0,0-3.8,5.706v3.532H20.89V50.1a6.2,6.2,0,0,0-3.8-5.706,4.945,4.945,0,0,0,.978-.706h9.618a4.945,4.945,0,0,0,.978.706,6.2,6.2,0,0,0-3.8,5.706v3.532h12.39V50.1a6.2,6.2,0,0,0-3.8-5.706,4.945,4.945,0,0,0,.978-.706h9.618a4.945,4.945,0,0,0,.978.706,6.2,6.2,0,0,0-3.8,5.706Zm11.3,0v2.445H42.3V50.1a5.108,5.108,0,0,1,10.216,0ZM9.75,9.887H52.3V14.56H9.8Zm2.826,5.76H49.527v20a4.891,4.891,0,0,0-6.358,6.9H35.29a4.945,4.945,0,1,0-8.477,0H18.933a4.891,4.891,0,0,0-6.358-6.9ZM19.8,50.1v2.445H9.587V50.1a5.108,5.108,0,0,1,10.216,0ZM14.695,43.9a3.858,3.858,0,1,1,3.858-3.858A3.858,3.858,0,0,1,14.695,43.9ZM36.159,50.1v2.445H25.943V50.1a5.108,5.108,0,0,1,10.216,0ZM31.051,43.9a3.858,3.858,0,1,1,3.858-3.858A3.858,3.858,0,0,1,31.051,43.9ZM43.6,40.046A3.858,3.858,0,1,1,47.462,43.9,3.858,3.858,0,0,1,43.6,40.046Z" fill="none" stroke="#f2c165" stroke-width="1"/><rect width="12.77" height="1.087" transform="translate(19.803 21.842)" fill="none" stroke="#f2c165" stroke-width="1"/><rect width="22.551" height="1.087" transform="translate(19.803 28.363)" fill="none" stroke="#f2c165" stroke-width="1"/></g></g></svg>