<svg xmlns="http://www.w3.org/2000/svg" width="37.5" height="8" viewBox="0 0 37.5 8"><g transform="translate(0.5)"><line x2="30" transform="translate(0 4)" fill="none" stroke="#231f1e" stroke-linecap="round" stroke-width="1"/><g transform="translate(37) rotate(90)" fill="#231f1e"><path d="M 6.276819705963135 6.499995708465576 L 1.723179578781128 6.499995708465576 C 1.463299512863159 6.499995708465576 1.334179520606995 6.325835704803467 1.290719509124756 6.250955581665039 C 1.247269511222839 6.176085472106934 1.160129547119141 5.977565288543701 1.289059519767761 5.751935482025146 L 3.565879583358765 1.767495512962341 C 3.695809602737427 1.540115475654602 3.91275954246521 1.515565514564514 3.999999523162842 1.515565514564514 C 4.087239742279053 1.515565514564514 4.304189682006836 1.540115475654602 4.434119701385498 1.767495512962341 L 6.710939407348633 5.751935482025146 C 6.839869499206543 5.977565288543701 6.752729415893555 6.176085472106934 6.709279537200928 6.250955581665039 C 6.665819644927979 6.325835704803467 6.536699295043945 6.499995708465576 6.276819705963135 6.499995708465576 Z" stroke="none"/><path d="M 3.999999523162842 2.015565395355225 L 1.723179340362549 5.999995231628418 L 6.276819229125977 6.000005722045898 L 3.999999523162842 2.015565395355225 M 3.999999523162842 1.015567779541016 C 4.338147163391113 1.015567779541016 4.676294326782227 1.183520317077637 4.868239402770996 1.519425392150879 L 7.145059585571289 5.503865242004395 C 7.526009559631348 6.170515537261963 7.044639587402344 6.999995231628418 6.276819229125977 6.999995231628418 L 1.723179340362549 6.999995231628418 C 0.9553594589233398 6.999995231628418 0.4739894866943359 6.170515537261963 0.8549394607543945 5.503865242004395 L 3.131759643554688 1.519425392150879 C 3.323704719543457 1.183520317077637 3.66185188293457 1.015567779541016 3.999999523162842 1.015567779541016 Z" stroke="none" fill="#231f1e"/></g></g></svg>