<svg xmlns="http://www.w3.org/2000/svg" width="100" height="100" viewBox="0 0 100 100"><circle cx="50" cy="50" r="50" fill="#231f1e"/><g transform="translate(12.5 9.2)"><path d="M53.7,55.4a3.78,3.78,0,0,0-3.773,3.156H38.815A3.89,3.89,0,0,0,35.042,55.4,3.836,3.836,0,0,0,31.2,59.242a3.766,3.766,0,0,0,.96,2.538,3.766,3.766,0,0,0-.96,2.538,3.836,3.836,0,0,0,3.842,3.842,3.9,3.9,0,0,0,3.842-3.224H49.929a3.969,3.969,0,0,0,3.842,3.224,3.836,3.836,0,0,0,3.842-3.842,3.766,3.766,0,0,0-.96-2.538,3.766,3.766,0,0,0,.96-2.538A3.9,3.9,0,0,0,53.7,55.4Zm1.509,7a2.606,2.606,0,0,1,1.029,1.99,2.47,2.47,0,0,1-4.94,0h0a.648.648,0,0,0-.686-.686H38.266a.687.687,0,0,0-.686.686,2.47,2.47,0,1,1-4.94,0A2.324,2.324,0,0,1,33.67,62.4a.686.686,0,0,0,0-1.1,2.606,2.606,0,0,1-1.029-1.99,2.47,2.47,0,0,1,4.94,0,.648.648,0,0,0,.686.686H50.615a.648.648,0,0,0,.686-.686,2.47,2.47,0,0,1,4.94,0,2.324,2.324,0,0,1-1.029,1.99.686.686,0,0,0,0,1.1Z" transform="translate(-6.813 -11.177)" fill="#f2c165"/><path d="M64.384,19.8h-54.2a.648.648,0,0,0-.686.686v40.2a.648.648,0,0,0,.686.686h54.2a.648.648,0,0,0,.686-.686v-40.2A.648.648,0,0,0,64.384,19.8ZM63.7,60H10.872V21.172H63.7Z" fill="#f2c165"/><path d="M39.686,35.638a.648.648,0,0,0,.686-.686,6.38,6.38,0,1,1,12.761,0,.686.686,0,0,0,1.372,0,7.752,7.752,0,1,0-15.5,0A.687.687,0,0,0,39.686,35.638Z" transform="translate(-9.262 -2.323)" fill="#f2c165"/><path d="M26.586,51.572H58.83a.686.686,0,1,0,0-1.372H26.586a.686.686,0,1,0,0,1.372Z" transform="translate(-5.149 -9.544)" fill="#f2c165"/><path d="M26.586,46.172H58.83a.686.686,0,1,0,0-1.372H26.586a.686.686,0,1,0,0,1.372Z" transform="translate(-5.149 -7.849)" fill="#f2c165"/><path d="M46.6,35.007A2.607,2.607,0,1,0,49.207,32.4,2.606,2.606,0,0,0,46.6,35.007Zm3.773,0a1.235,1.235,0,1,1-1.235-1.235A1.23,1.23,0,0,1,50.373,35.007Z" transform="translate(-11.648 -3.956)" fill="#f2c165"/></g></svg>