<svg xmlns="http://www.w3.org/2000/svg" width="59.792" height="38.247" viewBox="0 0 59.792 38.247"><g transform="translate(-5 -21.215)"><path d="M19.833,34.213a6.5,6.5,0,1,0-6.5-6.5A6.508,6.508,0,0,0,19.833,34.213Zm0-11.07a4.571,4.571,0,1,1-4.571,4.57A4.576,4.576,0,0,1,19.833,23.143Z" transform="translate(-2.798 0)"/><path d="M46.307,39.445a7.883,7.883,0,1,0-7.882-7.884A7.893,7.893,0,0,0,46.307,39.445Zm0-13.837a5.954,5.954,0,1,1-5.953,5.953A5.962,5.962,0,0,1,46.307,25.608Z" transform="translate(-11.22 -0.827)"/><path d="M52.907,44.388c-5.412,0-10.081,2.548-11.455,6.077a20.548,20.548,0,0,0-13.114,0c-1.375-3.53-6.044-6.077-11.456-6.077C10.33,44.388,5,48.084,5,52.628v1.818a4.61,4.61,0,0,0,4.6,4.6H20.3c-.008.132-.014.265-.014.4v2.273A5.521,5.521,0,0,0,25.8,67.24H43.992a5.521,5.521,0,0,0,5.515-5.515V59.452c0-.134-.007-.267-.014-.4H60.187a4.61,4.61,0,0,0,4.6-4.6V52.628C64.79,48.084,59.46,44.388,52.907,44.388ZM21.172,55.995s0,0,0,0c-.074.143-.146.287-.212.431-.086.185-.162.374-.232.563-.017.045-.04.088-.054.132H9.6a2.678,2.678,0,0,1-2.675-2.675V52.629c0-3.48,4.465-6.312,9.953-6.312,4.648,0,8.624,2.043,9.679,4.858A11.507,11.507,0,0,0,21.172,55.995ZM43.992,65.31H25.8a3.589,3.589,0,0,1-3.585-3.585V59.45a5.347,5.347,0,0,1,.242-1.574c.023-.07.05-.141.075-.211.052-.148.112-.293.177-.438s.137-.291.215-.432c.049-.092.1-.181.155-.271a6.992,6.992,0,0,1,.469-.678l.023-.031a11.083,11.083,0,0,1,4.511-3.2A.181.181,0,0,0,28.1,52.6a18.708,18.708,0,0,1,13.6,0c.006,0,.011.008.016.011a11.076,11.076,0,0,1,4.511,3.2l.022.03a7.35,7.35,0,0,1,.47.679c.054.09.1.18.154.271.078.143.15.287.215.432s.125.291.177.438c.025.07.052.141.075.211a5.382,5.382,0,0,1,.242,1.574v2.275h0A3.587,3.587,0,0,1,43.992,65.31Zm16.194-8.188H49.116c-.015-.045-.039-.088-.054-.132-.069-.191-.146-.378-.232-.564q-.1-.218-.212-.431s0,0,0,0a11.508,11.508,0,0,0-5.388-4.82c1.054-2.814,5.03-4.858,9.678-4.858,5.489,0,9.953,2.832,9.953,6.312v1.819h0A2.678,2.678,0,0,1,60.186,57.123Z" transform="translate(0 -7.778)"/><path d="M74.064,34.213a6.5,6.5,0,1,0-6.5-6.5A6.508,6.508,0,0,0,74.064,34.213Zm0-11.07a4.571,4.571,0,1,1-4.571,4.57A4.577,4.577,0,0,1,74.064,23.143Z" transform="translate(-21.001 0)"/></g></svg>