<svg xmlns="http://www.w3.org/2000/svg" xmlns:xlink="http://www.w3.org/1999/xlink" width="118" height="118" viewBox="0 0 118 118"><defs><filter id="a" x="0" y="0" width="118" height="118" filterUnits="userSpaceOnUse"><feOffset dy="3" input="SourceAlpha"/><feGaussianBlur stdDeviation="3" result="b"/><feFlood flood-opacity="0.161"/><feComposite operator="in" in2="b"/><feComposite in="SourceGraphic"/></filter></defs><g transform="translate(9 6)"><g transform="matrix(1, 0, 0, 1, -9, -6)" filter="url(#a)"><circle cx="50" cy="50" r="50" transform="translate(9 6)" fill="#231f1e"/></g><g transform="translate(8.091 9)"><path d="M42.03,42.065h0A6.28,6.28,0,1,0,46.6,34.45,6.291,6.291,0,0,0,42.03,42.066Zm8.538-5.6a4.752,4.752,0,1,1-7.056,5.227h0a4.752,4.752,0,0,1,7.056-5.227Z" transform="translate(-6.124 -5.729)" fill="#f2c165"/><path d="M37.3,37.2a2.99,2.99,0,1,0-.735.091A3.033,3.033,0,0,0,37.3,37.2ZM35.13,34.637h0a1.48,1.48,0,1,1,.674.91A1.482,1.482,0,0,1,35.13,34.636Z" transform="translate(-4.167 -5.023)" fill="#f2c165"/><path d="M44.127,29.978A3.008,3.008,0,1,0,41.208,27.7,3.01,3.01,0,0,0,44.127,29.978Zm-1.27-3.77a1.48,1.48,0,1,1-.167,1.12A1.471,1.471,0,0,1,42.857,26.208Z" transform="translate(-5.953 -3.297)" fill="#f2c165"/><path d="M54.014,29.977A3.008,3.008,0,1,0,51.094,27.7,3.01,3.01,0,0,0,54.014,29.977Zm-1.27-3.77a1.48,1.48,0,1,1-.167,1.12A1.471,1.471,0,0,1,52.743,26.208Z" transform="translate(-8.287 -3.296)" fill="#f2c165"/><path d="M58.656,34.9a3.008,3.008,0,1,0,2.189-3.648A3.014,3.014,0,0,0,58.656,34.9ZM60.3,33.407a1.481,1.481,0,1,1-.167,1.12A1.472,1.472,0,0,1,60.3,33.407Z" transform="translate(-10.073 -4.997)" fill="#f2c165"/><path d="M45.01,48.441A16.227,16.227,0,1,0,28.783,32.214,16.245,16.245,0,0,0,45.01,48.441Zm0-30.926a14.7,14.7,0,1,1-14.7,14.7A14.716,14.716,0,0,1,45.01,17.515Z" transform="translate(-3.04 -1.414)" fill="#f2c165"/><path d="M16.1,65.288a.765.765,0,0,0,.88.188l11.128-4.953,3.757,10.088a.764.764,0,0,0,.674.5h.043a.763.763,0,0,0,.682-.42l8.613-17.1,8.75,17.107a.763.763,0,0,0,.68.416h.044a.764.764,0,0,0,.671-.5l3.758-10.088,11.127,4.953a.764.764,0,0,0,.97-1.084l-11.107-19a20.8,20.8,0,1,0-29.641-.034L16.014,64.393A.763.763,0,0,0,16.1,65.288Zm16.586,3.15-3.3-8.86,5.656-9.168a20.672,20.672,0,0,0,6.133,1.169Zm18.51.014L42.732,51.9h0l.16-.318a20.667,20.667,0,0,0,5.964-1.153l5.65,9.155Zm4.678-9.559L50.3,49.855a20.845,20.845,0,0,0,5.332-3.389l9.734,16.651ZM41.97,11.528A19.273,19.273,0,1,1,22.7,30.8,19.294,19.294,0,0,1,41.97,11.528Zm-13.7,34.908a20.848,20.848,0,0,0,5.331,3.4l-5.587,9.055-9.489,4.223Z" fill="#f2c165"/></g></g></svg>