<svg height="50" viewBox="0 0 50 50" width="50" xmlns="http://www.w3.org/2000/svg"><circle cx="25" cy="25" fill="#f2c165" r="25"/><path d="m17.108 14.493 7.092-6.493v12.172a.88.88 0 0 1 -.055.274zm-5.908 1.216.627.575a2.45 2.45 0 0 0 3.329 0l.626-.575 6.325 5.352h-17.232zm2.75-.741a.659.659 0 0 1 -.916 0l-8.934-8.183h18.778zm-11.165 5.2v-12.168l7.09 6.5-7.035 5.946a.88.88 0 0 1 -.055-.274zm20.524-15.168h-19.636a2.676 2.676 0 0 0 -2.673 2.673v12.5a2.676 2.676 0 0 0 2.673 2.673h19.636a2.675 2.675 0 0 0 2.673-2.673v-12.5a2.676 2.676 0 0 0 -2.673-2.673z" fill="#231f1e" fill-rule="evenodd" transform="translate(12 11)"/></svg>