<svg height="100" viewBox="0 0 100 100" width="100" xmlns="http://www.w3.org/2000/svg"><circle cx="50" cy="50" fill="#f2c165" r="50"/><g fill="#231f1e" transform="translate(14.1 13.999)"><path d="m63.857 12.378a7.155 7.155 0 0 0 -5.276-2.293 7.232 7.232 0 0 0 -.6 14.438v22.953a7.233 7.233 0 0 0 .6 14.441 7.155 7.155 0 0 0 5.276-2.293 7.154 7.154 0 0 0 5.275 2.293 7.233 7.233 0 0 0 .649-14.437v-22.958a7.233 7.233 0 0 0 -.649-14.438 7.154 7.154 0 0 0 -5.275 2.294zm11.211 4.94a5.942 5.942 0 0 1 -5.935 5.935.649.649 0 0 0 -.649.649v24.198a.649.649 0 0 0 .649.649 5.935 5.935 0 1 1 -4.755 9.476.649.649 0 0 0 -1.04 0 5.933 5.933 0 1 1 -4.755-9.476h.046a.649.649 0 0 0 .649-.649v-24.2a.689.689 0 0 0 -.694-.649 5.936 5.936 0 1 1 4.755-9.476.672.672 0 0 0 1.04 0 5.929 5.929 0 0 1 10.69 3.54z" transform="translate(-14.533)"/><path d="m9.968 54.684a7.241 7.241 0 0 0 7.232 7.233 7.154 7.154 0 0 0 5.275-2.293 7.155 7.155 0 0 0 5.276 2.293 7.233 7.233 0 0 0 .649-14.437v-22.958a7.233 7.233 0 0 0 -.649-14.438 7.155 7.155 0 0 0 -5.276 2.293 7.154 7.154 0 0 0 -5.275-2.292 7.232 7.232 0 0 0 -.6 14.438v22.953a7.242 7.242 0 0 0 -6.632 7.208zm7.932-6.584v-24.2a.689.689 0 0 0 -.694-.649 5.936 5.936 0 1 1 4.755-9.476.672.672 0 0 0 1.04 0 5.933 5.933 0 1 1 4.755 9.476.649.649 0 0 0 -.649.649v24.2a.649.649 0 0 0 .649.649 5.935 5.935 0 1 1 -4.756 9.475.649.649 0 0 0 -1.04 0 5.932 5.932 0 1 1 -4.76-9.475h.046a.649.649 0 0 0 .654-.649z"/></g></svg>