<svg xmlns="http://www.w3.org/2000/svg" width="100" height="100" viewBox="0 0 100 100"><g transform="translate(0)"><circle cx="50" cy="50" r="50" transform="translate(0)" fill="#231f1e"/><g transform="translate(23 -994.034)"><g transform="translate(2 1028.034)"><path d="M27.5,7.672a4.289,4.289,0,1,0,4.289,4.289A4.3,4.3,0,0,0,27.5,7.672Zm0,1.758a2.531,2.531,0,1,1-2.531,2.531A2.507,2.507,0,0,1,27.5,9.43ZM18.7,14.492a4.289,4.289,0,1,0,4.289,4.289A4.3,4.3,0,0,0,18.7,14.492Zm17.69,0a4.289,4.289,0,1,0,4.289,4.289A4.3,4.3,0,0,0,36.394,14.492ZM18.7,16.251a2.531,2.531,0,1,1-2.531,2.531A2.506,2.506,0,0,1,18.7,16.251Zm17.69,0a2.531,2.531,0,1,1-2.531,2.531A2.506,2.506,0,0,1,36.394,16.251ZM9.912,19.894A4.288,4.288,0,1,0,14.2,24.184,4.3,4.3,0,0,0,9.912,19.894Zm17.583,0a4.288,4.288,0,1,0,4.289,4.289A4.3,4.3,0,0,0,27.5,19.894Zm17.583,0a4.288,4.288,0,1,0,4.289,4.289A4.3,4.3,0,0,0,45.079,19.894ZM9.912,21.653a2.529,2.529,0,1,1-2.531,2.531A2.507,2.507,0,0,1,9.912,21.653Zm17.583,0a2.529,2.529,0,1,1-2.531,2.531A2.507,2.507,0,0,1,27.5,21.653Zm17.583,0a2.529,2.529,0,1,1-2.531,2.531A2.507,2.507,0,0,1,45.079,21.653Zm-38.364,7.8A4.724,4.724,0,0,0,2,34.163V39.9H17.825V34.163a4.724,4.724,0,0,0-4.715-4.715Zm17.583,0a4.724,4.724,0,0,0-4.715,4.715V39.9H35.408V34.163a4.724,4.724,0,0,0-4.715-4.715Zm17.583,0a4.724,4.724,0,0,0-4.715,4.715V39.9H52.991V34.163a4.724,4.724,0,0,0-4.715-4.715ZM6.715,31.207H13.11a2.931,2.931,0,0,1,2.957,2.957V38.14H3.758V34.163A2.931,2.931,0,0,1,6.715,31.207Zm17.583,0h6.395a2.931,2.931,0,0,1,2.957,2.957V38.14H21.341V34.163A2.931,2.931,0,0,1,24.3,31.207Zm17.583,0h6.395a2.931,2.931,0,0,1,2.957,2.957V38.14H38.925V34.163A2.931,2.931,0,0,1,41.882,31.207Z" transform="translate(-2 -7.672)" fill="#f2c165"/></g></g></g></svg>