<svg xmlns="http://www.w3.org/2000/svg" width="62.706" height="65.238" viewBox="0 0 62.706 65.238"><g transform="matrix(0.809, 0.588, -0.588, 0.809, 25.443, -8.851)" opacity="0.702"><g transform="translate(9.028 21.238)"><path d="M40.1,21.76l-.183-.611-.367-.978-.244-.611-.672-1.222-.917-1.161-1.222-1.1-1.406-1.284-1.161-1.1-1.1-1.222-.917-1.222-.856-1.284-.917-1.711-.55-1.161-.672-1.284L28.056,4.4l-.978-1.284-.672-.672-.672-.611-.917-.672-1.1-.489L22.31.183,20.9,0H19.437L18.031.183,16.014.917,14.058,2.262,12.775,3.545,11.98,4.768l-.795,1.406L10.146,8.313l-.978,1.895-1.1,1.467L6.724,13.386,2.751,17.053l-.367.306-.917,1.284L.733,20.11.306,21.943l-.244,1.65L0,25.427.183,26.65l.55,1.711.795,1.589.856,1.1,1.1,1.1,1.467.978,1.711.795,1.284.306L9.9,34.29l1.895-.428,1.161-.55.489-.367,1.1-.611,1.039-.611.917-.55.978-.428.795-.367.917-.244.978-.061,1.161.183.856.183,1.406.672,1.711.856,1.406.917,1.284.733,1.284.55,1.222.244,1.039.061.856-.061,1.345-.367,1.711-.795,1.222-.856,1.284-1.284.917-1.222.795-1.65.489-1.589.183-1.345V23.9L40.28,23.1Z" fill="#231f1e"/></g><g transform="translate(30.122 0.025)"><ellipse cx="9.413" cy="6.601" rx="9.413" ry="6.601" transform="matrix(0.105, -0.994, 0.994, 0.105, 0, 18.722)" fill="#231f1e"/></g><g transform="translate(13.147)"><ellipse cx="6.601" cy="9.413" rx="6.601" ry="9.413" transform="matrix(0.994, -0.105, 0.105, 0.994, 0, 1.389)" fill="#231f1e"/></g><g transform="translate(41.436 14.1)"><ellipse cx="9.352" cy="6.601" rx="9.352" ry="6.601" transform="translate(0 18.257) rotate(-77.444)" fill="#231f1e"/></g><g transform="translate(0 14.098)"><ellipse cx="6.601" cy="9.352" rx="6.601" ry="9.352" transform="translate(0 2.87) rotate(-12.556)" fill="#231f1e"/></g></g></svg>