<svg xmlns="http://www.w3.org/2000/svg" width="100" height="100" viewBox="0 0 100 100"><circle cx="50" cy="50" r="50" fill="#231f1e"/><g transform="translate(21 21)"><path d="M28.609,5A23.609,23.609,0,1,0,52.218,28.609,23.577,23.577,0,0,0,28.609,5Zm0,45.119a21.51,21.51,0,1,1,21.51-21.51A21.54,21.54,0,0,1,28.609,50.119Z" fill="#f2c165"/><path d="M50.025,44.3a1.052,1.052,0,0,0-1.049,1.049V56.577H30.3V45.349a1.049,1.049,0,0,0-2.1,0V58.675H51.074V45.349A1.052,1.052,0,0,0,50.025,44.3Z" transform="translate(-11.028 -18.682)" fill="#f2c165"/><path d="M50.916,31.44,37.013,21,23.11,31.44a1.049,1.049,0,0,0,1.259,1.679l12.644-9.5,12.644,9.5a1.008,1.008,0,0,0,.63.21,1.1,1.1,0,0,0,.839-.42A1.02,1.02,0,0,0,50.916,31.44Z" transform="translate(-8.404 -7.606)" fill="#f2c165"/><path d="M43.915,37.2a1.052,1.052,0,0,0-1.049,1.049v4.617H38.249a1.049,1.049,0,1,0,0,2.1h4.617v4.617a1.049,1.049,0,1,0,2.1,0V44.965h4.617a1.049,1.049,0,1,0,0-2.1H44.965V38.249A1.052,1.052,0,0,0,43.915,37.2Z" transform="translate(-15.307 -15.307)" fill="#f2c165"/></g></svg>