<svg xmlns="http://www.w3.org/2000/svg" xmlns:xlink="http://www.w3.org/1999/xlink" width="118" height="118" viewBox="0 0 118 118"><defs><filter id="a" x="0" y="0" width="118" height="118" filterUnits="userSpaceOnUse"><feOffset dy="3" input="SourceAlpha"/><feGaussianBlur stdDeviation="3" result="b"/><feFlood flood-opacity="0.161"/><feComposite operator="in" in2="b"/><feComposite in="SourceGraphic"/></filter></defs><g transform="translate(8.521 6)"><g transform="matrix(1, 0, 0, 1, -8.52, -6)" filter="url(#a)"><circle cx="50" cy="50" r="50" transform="translate(9 6)" fill="#231f1e"/></g><g transform="translate(19.669 24.681)"><path d="M70.728,22.007,68.314,27.4a4.108,4.108,0,0,1-3.478,2.141h-.907q-1.666-.1-3.626-.068a26.573,26.573,0,0,0-4.215,1.008,5.4,5.4,0,0,1-2.958.148,14.026,14.026,0,0,1-1.7-.657,24.345,24.345,0,0,1-2.085-1.406,23.4,23.4,0,0,0-3.309-2.028q-1.37-.749-5.258-2.493A8.4,8.4,0,0,1,37.9,22.109,2.084,2.084,0,0,1,37.729,20a1.816,1.816,0,0,1,1.054-1.043,3.042,3.042,0,0,1,2.652.091q1.857.839,2.572,1.156,1.258.567,3.954,1.45a9.9,9.9,0,0,0,1.835.386h.782l-.7-.317q-6.2-2.844-8.147-3.672a4.348,4.348,0,0,0-3.3-.248,3.4,3.4,0,0,0-1.858,1.631,5.278,5.278,0,0,0-.374,1.62q-.726-.045-2.958-.125-4.68,2.256-5.077,2.4a6.66,6.66,0,0,1-1.881.34,2.842,2.842,0,0,1-1.553-.375,1.672,1.672,0,0,1-.839-1.246q-.171-1.021,1.779-2.21l6.889-4.465q4.975-.588,9.712-1.6a3.141,3.141,0,0,1,2.017.192q3.038,1.564,6.913,3.173,1.928.793,3.728,1.485a23.806,23.806,0,0,0,5.36,1.19H60.3q2.379.022,10.425-1.882Q73.334,17.363,70.728,22.007Z" transform="translate(-11.32 -13.695)" fill="none" stroke="#f2c165" stroke-width="1.5" fill-rule="evenodd"/><path d="M20.005,31.831a70.792,70.792,0,0,1,5.644,9.892q3.671,7.966,3.365,13.417a1.352,1.352,0,0,1-.295.589,1.914,1.914,0,0,1-.5.442,17.8,17.8,0,0,1-8.261.7A17.174,17.174,0,0,1,9.365,50.087q.8-7.389,2.969-11.525l1.926-2.674A15.279,15.279,0,0,1,20.005,31.831Z" transform="translate(-6.243 -19.039)" fill="none" stroke="#f2c165" stroke-width="1.5" fill-rule="evenodd"/><path d="M52.968,42.222a2.766,2.766,0,0,0-1.711-1.087q-9.335.229-10.573-2.607A11.676,11.676,0,0,0,32.9,31.31Q27.459,29.757,21.057,32.6a64.04,64.04,0,0,1,4.668,8.816q3.422,7.683,3.048,13.145a2.887,2.887,0,0,1-.759,1.892,3.171,3.171,0,0,1-1.609,1.2,20.745,20.745,0,0,1-8.034.566q-5.11-.431-11.048-5.315-1.351,6.661-2.759,8.663Q18.515,69.656,31.7,70.3q2.039-7.173,2.131-7.377.51-1.326.612-1.507a3.629,3.629,0,0,1,.589-.737,3.122,3.122,0,0,1,1.757-.907,23.466,23.466,0,0,0,10.017-3.6A14.68,14.68,0,0,0,53.589,44.08,2.475,2.475,0,0,0,52.968,42.222ZM36.173,43.559a2.314,2.314,0,0,1-3.23,0,2.273,2.273,0,0,1,1.621-3.887,2.211,2.211,0,0,1,1.609.658,2.31,2.31,0,0,1,0,3.229Z" transform="translate(-4.563 -19.665)" fill="none" stroke="#f2c165" stroke-width="1.5" fill-rule="evenodd"/></g></g></svg>