<svg xmlns="http://www.w3.org/2000/svg" width="51.77" height="53.699" viewBox="0 0 51.77 53.699"><g transform="matrix(0.809, 0.588, -0.588, 0.809, 21.726, -9.974)"><g transform="translate(9.279 20.436)"><path d="M48.306,55.589l-.143-.477-.286-.764-.191-.477-.525-.954-.716-.907-.954-.859-1.1-1-.907-.859-.859-.954-.716-.954-.668-1-.716-1.336-.43-.907-.525-1-.668-1.1-.764-1-.525-.525-.525-.477-.716-.525-.859-.382-1.1-.382-1.1-.143H32.176l-1.1.143-1.575.573-1.527,1.05-1,1-.62.954-.62,1.1-.811,1.67-.764,1.479L23.3,47.715l-1.05,1.336-3.1,2.863-.286.239-.716,1L17.573,54.3l-.334,1.432-.191,1.288L17,58.452l.143.954.429,1.336.62,1.241.668.859.859.859,1.145.764,1.336.62,1,.239,1.527.048,1.479-.334.907-.43.382-.286.859-.477.811-.477.716-.43.764-.334.62-.286.716-.191.764-.048.907.143.668.143,1.1.525,1.336.668,1.1.716,1,.573,1,.43.954.191.811.048.668-.048,1.05-.286,1.336-.62.954-.668,1-1,.716-.954.62-1.288.382-1.241.143-1.05v-1.1l-.048-.62Z" transform="translate(-17 -38.6)" fill="none" stroke="#231f1e" stroke-width="2"/></g><g transform="translate(25.748 3.874)"><ellipse cx="7.349" cy="5.154" rx="7.349" ry="5.154" transform="matrix(0.105, -0.994, 0.994, 0.105, 0, 14.618)" fill="none" stroke="#231f1e" stroke-width="2"/></g><g transform="translate(12.495 3.854)"><ellipse cx="5.154" cy="7.349" rx="5.154" ry="7.349" transform="matrix(0.994, -0.105, 0.105, 0.994, 0, 1.084)" fill="none" stroke="#231f1e" stroke-width="2"/></g><g transform="translate(34.582 14.863)"><ellipse cx="7.301" cy="5.154" rx="7.301" ry="5.154" transform="translate(0 14.254) rotate(-77.444)" fill="none" stroke="#231f1e" stroke-width="2"/></g><g transform="translate(2.23 14.861)"><ellipse cx="5.154" cy="7.301" rx="5.154" ry="7.301" transform="translate(0 2.241) rotate(-12.556)" fill="none" stroke="#231f1e" stroke-width="2"/></g></g></svg>