<svg height="100" viewBox="0 0 100 100" width="100" xmlns="http://www.w3.org/2000/svg"><circle cx="50" cy="50" fill="#f2c165" r="50"/><g fill="#231f1e" transform="translate(8.053 9.445)"><path d="m42.03 42.065a6.28 6.28 0 1 0 4.57-7.615 6.291 6.291 0 0 0 -4.57 7.616zm8.538-5.6a4.752 4.752 0 1 1 -7.056 5.227 4.752 4.752 0 0 1 7.056-5.227z" transform="translate(-6.124 -5.729)"/><path d="m37.3 37.2a2.99 2.99 0 1 0 -.735.091 3.033 3.033 0 0 0 .735-.091zm-2.17-2.563a1.48 1.48 0 1 1 .674.91 1.482 1.482 0 0 1 -.674-.911z" transform="translate(-4.167 -5.023)"/><path d="m44.127 29.978a3.008 3.008 0 1 0 -2.919-2.278 3.01 3.01 0 0 0 2.919 2.278zm-1.27-3.77a1.48 1.48 0 1 1 -.167 1.12 1.471 1.471 0 0 1 .167-1.12z" transform="translate(-5.953 -3.297)"/><path d="m54.014 29.977a3.008 3.008 0 1 0 -2.92-2.277 3.01 3.01 0 0 0 2.92 2.277zm-1.27-3.77a1.48 1.48 0 1 1 -.167 1.12 1.471 1.471 0 0 1 .166-1.119z" transform="translate(-8.287 -3.296)"/><path d="m58.656 34.9a3.008 3.008 0 1 0 2.189-3.648 3.014 3.014 0 0 0 -2.189 3.648zm1.644-1.493a1.481 1.481 0 1 1 -.167 1.12 1.472 1.472 0 0 1 .167-1.12z" transform="translate(-10.073 -4.997)"/><path d="m45.01 48.441a16.227 16.227 0 1 0 -16.227-16.227 16.245 16.245 0 0 0 16.227 16.227zm0-30.926a14.7 14.7 0 1 1 -14.7 14.7 14.716 14.716 0 0 1 14.7-14.7z" transform="translate(-3.04 -1.414)"/><path d="m16.1 65.288a.765.765 0 0 0 .88.188l11.128-4.953 3.757 10.088a.764.764 0 0 0 .674.5h.043a.763.763 0 0 0 .682-.42l8.613-17.1 8.75 17.107a.763.763 0 0 0 .68.416h.044a.764.764 0 0 0 .671-.5l3.758-10.088 11.127 4.953a.764.764 0 0 0 .97-1.084l-11.107-19a20.8 20.8 0 1 0 -29.641-.034l-11.115 19.032a.763.763 0 0 0 .086.895zm16.586 3.15-3.3-8.86 5.656-9.168a20.672 20.672 0 0 0 6.133 1.169zm18.51.014-8.464-16.552.16-.318a20.667 20.667 0 0 0 5.964-1.153l5.65 9.155zm4.678-9.559-5.574-9.038a20.845 20.845 0 0 0 5.332-3.389l9.734 16.651zm-13.904-47.365a19.273 19.273 0 1 1 -19.27 19.272 19.294 19.294 0 0 1 19.27-19.272zm-13.7 34.908a20.848 20.848 0 0 0 5.331 3.4l-5.587 9.055-9.489 4.223z"/></g></svg>